<?xml version="1.0" standalone="no"?>
<!DOCTYPE svg PUBLIC "-//W3C//DTD SVG 20010904//EN"
 "http://www.w3.org/TR/2001/REC-SVG-20010904/DTD/svg10.dtd">
<svg version="1.0" xmlns="http://www.w3.org/2000/svg"
 width="1600.000000pt" height="1600.000000pt" viewBox="0 0 1600.000000 1600.000000"
 preserveAspectRatio="xMidYMid meet">
<metadata>
Created by potrace 1.14, written by Peter Selinger 2001-2017
</metadata>
<g transform="translate(0.000000,1600.000000) scale(0.100000,-0.100000)"
fill="#000000" stroke="none">
<path d="M9178 15660 c-127 -26 -252 -72 -333 -123 -151 -93 -270 -206 -356
-337 -234 -356 -232 -819 6 -1175 266 -398 773 -569 1228 -413 247 84 459 264
589 498 24 44 76 167 83 199 3 9 11 43 20 76 22 84 28 310 10 405 -42 234
-137 416 -304 581 -151 151 -333 248 -541 290 -98 20 -305 19 -402 -1z m371
-594 c186 -75 298 -232 306 -427 7 -144 -38 -261 -137 -361 -141 -142 -352
-183 -532 -103 -108 48 -188 124 -240 230 -67 135 -67 282 -1 420 48 101 138
188 240 234 99 45 263 48 364 7z"/>
<path d="M7997 13474 c-1 -1 -64 -4 -139 -8 -75 -3 -147 -8 -160 -10 -13 -3
-60 -7 -105 -10 -45 -4 -88 -8 -95 -10 -7 -3 -42 -7 -78 -11 -54 -5 -170 -22
-280 -40 -551 -93 -1142 -290 -1685 -562 -361 -181 -797 -461 -1075 -692 -19
-16 -69 -57 -110 -91 -269 -222 -674 -640 -854 -880 -22 -30 -49 -64 -59 -75
-39 -43 -233 -322 -314 -452 -47 -76 -93 -149 -102 -163 -104 -166 -298 -563
-402 -823 -76 -190 -200 -560 -224 -667 -2 -8 -12 -51 -24 -95 -22 -89 -57
-241 -66 -295 -3 -19 -10 -53 -15 -75 -5 -22 -11 -58 -14 -80 -4 -22 -11 -65
-16 -95 -9 -55 -20 -134 -25 -180 -2 -25 -14 -122 -20 -170 -4 -27 -16 -210
-21 -300 -3 -72 -3 -521 0 -585 5 -85 17 -248 22 -290 4 -38 9 -84 18 -165 20
-164 37 -268 81 -490 3 -14 7 -36 10 -50 35 -188 200 -740 265 -887 6 -13 14
-33 19 -45 10 -27 38 -95 82 -198 78 -185 232 -484 361 -700 134 -224 372
-561 524 -740 275 -324 572 -618 849 -843 326 -264 721 -524 1035 -682 203
-102 241 -120 375 -180 125 -56 477 -191 519 -199 6 -2 70 -21 141 -44 164
-52 449 -123 625 -156 177 -32 213 -39 225 -41 6 -1 35 -5 65 -9 30 -3 69 -9
85 -11 17 -3 48 -7 70 -9 22 -3 63 -7 90 -11 273 -33 965 -39 1145 -11 14 3
59 7 100 10 95 8 198 21 330 41 54 9 96 16 120 20 14 3 39 7 55 10 27 4 195
38 250 50 245 55 575 156 815 249 58 22 107 41 110 41 55 14 430 190 629 297
320 171 701 431 1016 693 215 179 513 473 685 675 30 36 58 67 61 70 9 8 192
241 240 305 109 149 248 359 336 508 148 253 197 349 354 695 64 141 196 506
243 672 46 163 57 202 75 275 11 44 22 91 25 105 8 42 25 123 31 150 8 35 44
237 50 285 3 22 10 72 15 110 5 39 12 98 15 132 3 34 7 70 9 80 4 21 17 198
22 298 4 87 3 497 -1 585 -5 112 -18 271 -30 375 -3 22 -7 58 -10 80 -16 144
-71 460 -100 575 -2 8 -13 53 -24 100 -127 548 -377 1160 -677 1660 -97 161
-86 144 -183 289 -332 495 -745 949 -1201 1319 -36 29 -73 60 -83 68 -34 28
-212 160 -262 195 -27 19 -52 36 -55 39 -3 3 -12 10 -21 15 -9 6 -54 35 -100
66 -46 30 -104 68 -129 83 -25 15 -54 32 -65 39 -237 146 -588 321 -860 429
-55 22 -113 45 -130 53 -37 16 -247 87 -375 126 -121 38 -378 105 -500 130
-52 11 -102 22 -112 24 -9 2 -38 7 -65 11 -26 5 -50 9 -53 9 -3 1 -27 5 -55
10 -27 4 -59 9 -69 11 -26 5 -167 23 -293 39 -46 5 -137 12 -263 21 -91 6
-587 13 -593 8z m608 -2259 c213 -209 446 -438 519 -509 72 -71 324 -318 559
-550 235 -231 492 -484 570 -560 134 -131 782 -767 1329 -1306 137 -135 340
-334 451 -442 182 -178 199 -198 186 -214 -30 -36 -191 -189 -199 -189 -8 0
-208 193 -862 837 -420 412 -1024 1006 -1128 1108 -313 307 -1217 1196 -1573
1546 -130 129 -242 234 -247 234 -5 0 -134 -123 -287 -274 -153 -151 -342
-336 -420 -412 -78 -77 -334 -329 -570 -560 -235 -232 -478 -470 -539 -530
-62 -60 -302 -296 -534 -524 -231 -228 -492 -484 -578 -569 -86 -84 -318 -312
-515 -505 -196 -193 -361 -351 -366 -351 -11 0 -211 193 -211 203 0 4 71 77
159 162 87 85 358 352 602 592 244 240 514 505 600 590 86 84 338 331 559 548
220 217 467 460 548 539 81 79 356 349 612 601 256 251 571 561 700 688 129
127 238 230 242 229 4 -1 181 -173 393 -382z m-2039 -94 c8 -1 12 -101 11
-361 l0 -359 -435 -428 c-239 -235 -482 -474 -539 -530 -58 -57 -107 -103
-109 -103 -5 0 -5 1775 0 1781 4 3 1035 3 1072 0z m1839 -536 c68 -66 321
-314 562 -551 241 -238 490 -482 553 -544 63 -62 239 -234 391 -384 447 -440
1149 -1129 1364 -1340 l200 -196 0 -1880 c0 -1034 -2 -1881 -5 -1881 -3 -1
-859 -2 -1902 -3 -1680 -1 -1897 1 -1900 14 -2 8 -4 632 -3 1386 l0 1372 -815
-2 -815 -1 -2 -1355 c-1 -745 -2 -1369 -2 -1385 l-1 -30 -532 1 c-293 1 -537
2 -543 3 -7 1 -10 635 -10 1882 l0 1881 202 196 c111 108 384 377 608 597 224
220 483 474 575 565 93 91 361 355 597 586 235 232 540 531 676 665 137 134
328 323 425 419 l177 176 39 -36 c21 -19 94 -89 161 -155z"/>
<path d="M8756 6571 c-1 -3 -2 -303 -2 -666 l1 -660 816 -2 816 -1 0 668 0
668 -814 0 c-447 -1 -815 -3 -817 -7z"/>
<path d="M890 10385 c-237 -44 -415 -137 -580 -304 -159 -160 -255 -345 -295
-567 -13 -76 -14 -296 -1 -354 3 -14 8 -38 12 -55 21 -108 90 -265 165 -376
59 -85 188 -213 274 -271 263 -177 591 -229 892 -142 327 93 593 343 707 663
46 129 60 213 60 366 -1 122 -7 169 -40 282 -50 176 -137 324 -264 454 -159
161 -332 253 -575 304 -57 12 -290 12 -355 0z m311 -586 c170 -54 298 -194
334 -364 60 -290 -156 -568 -448 -579 -270 -10 -490 191 -502 459 -13 288 218
517 506 500 42 -3 91 -10 110 -16z"/>
<path d="M14887 5444 c-1 -1 -29 -4 -62 -7 -162 -15 -338 -79 -487 -178 -213
-141 -387 -395 -437 -640 -6 -30 -14 -65 -17 -79 -9 -45 -12 -234 -4 -285 5
-28 12 -68 15 -90 17 -102 87 -269 163 -384 52 -80 205 -231 290 -286 123 -79
267 -137 397 -160 17 -2 41 -7 55 -10 33 -7 203 -8 260 0 361 45 677 270 830
590 81 170 111 308 105 490 -4 135 -8 159 -37 265 -121 444 -530 760 -1001
774 -37 1 -68 1 -70 0z m120 -588 c28 -3 59 -9 70 -12 201 -72 327 -234 338
-434 5 -95 -8 -157 -52 -247 -54 -112 -186 -221 -299 -249 -59 -14 -204 -13
-257 2 -214 63 -360 263 -351 483 5 121 47 221 132 313 71 76 185 134 287 146
39 5 72 7 75 6 3 -1 28 -4 57 -8z"/>
<path d="M3830 2430 c-400 -72 -718 -354 -836 -742 -35 -115 -39 -151 -38
-323 1 -154 8 -201 56 -340 24 -73 99 -215 141 -270 208 -270 499 -422 822
-430 148 -4 233 7 352 45 172 55 313 140 435 263 208 210 321 490 311 773 -6
200 -48 346 -155 536 -7 13 -15 25 -18 28 -3 3 -17 23 -32 45 -139 204 -431
381 -693 420 -95 14 -248 12 -345 -5z m285 -575 c235 -44 407 -289 374 -534
-33 -236 -221 -406 -461 -417 -329 -14 -579 317 -473 629 80 237 308 368 560
322z"/>
</g>
</svg>
